<?xml version="1.0" encoding="UTF-8"?>
<svg version="1.1" xmlns="http://www.w3.org/2000/svg" width="2000" height="2000">
<path d="M0 0 C2.15003088 1.83005239 3.38239157 3.62116408 5 6 C5 6.66 5 7.32 5 8 C5.66 8 6.32 8 7 8 C11 13.41176471 11 13.41176471 11 16 C11.66 16 12.32 16 13 16 C14.2265625 17.3984375 14.2265625 17.3984375 15.625 19.375 C18.72273884 23.67656309 22.05615881 27.73927558 25.4609375 31.80078125 C27 34 27 34 27 37 C27.99 37.33 28.98 37.66 30 38 C34 42.45714286 34 42.45714286 34 45 C34.66 45 35.32 45 36 45 C37.78305524 47.63892176 38.99059621 49.97178863 40 53 C40.99 53.33 41.98 53.66 43 54 C46 58.33333333 46 58.33333333 46 61 C46.66 61 47.32 61 48 61 C53 66.47619048 53 66.47619048 53 69 C53.66 69 54.32 69 55 69 C56.78305524 71.63892176 57.99059621 73.97178863 59 77 C59.66 77 60.32 77 61 77 C65 82.41176471 65 82.41176471 65 85 C65.66 85 66.32 85 67 85 C70.60545627 88.94836651 73.04987067 93.04967171 75 98 C75.99 98.33 76.98 98.66 78 99 C79.64049685 100.92830332 81.14231271 102.83271783 82.625 104.875 C83.23601562 105.68904297 83.23601562 105.68904297 83.859375 106.51953125 C85.69328344 109.00320196 87.01704835 111.05114504 88 114 C88.66 114 89.32 114 90 114 C94 119.41176471 94 119.41176471 94 122 C94.66 122 95.32 122 96 122 C97.33203125 123.5390625 97.33203125 123.5390625 98.8125 125.625 C100.74577783 128.30403857 102.70823359 130.88105804 104.875 133.375 C107 136 107 136 107 138 C107.66 138 108.32 138 109 138 C113 143.41176471 113 143.41176471 113 146 C113.66 146 114.32 146 115 146 C118.60545627 149.94836651 121.04987067 154.04967171 123 159 C123.99 159.33 124.98 159.66 126 160 C128.32265612 162.58072903 129 163.45176068 129 167 C129.66 167 130.32 167 131 167 C136 172.47619048 136 172.47619048 136 175 C136.66 175 137.32 175 138 175 C142 180.41176471 142 180.41176471 142 183 C142.66 183 143.32 183 144 183 C148 187.35294118 148 187.35294118 148 191 C148.66 191 149.32 191 150 191 C155 196.47619048 155 196.47619048 155 199 C155.66 199 156.32 199 157 199 C158.78305524 201.63892176 159.99059621 203.97178863 161 207 C161.66 207 162.32 207 163 207 C167 211.35294118 167 211.35294118 167 215 C167.66 215 168.32 215 169 215 C170.44526736 216.73548169 171.8087222 218.53975963 173.125 220.375 C173.84945312 221.37273437 174.57390625 222.37046875 175.3203125 223.3984375 C177 226 177 226 177 228 C177.66 228 178.32 228 179 228 C180.33203125 229.5390625 180.33203125 229.5390625 181.8125 231.625 C183.74577783 234.30403857 185.70823359 236.88105804 187.875 239.375 C190 242 190 242 190 244 C190.66 244 191.32 244 192 244 C196 249.41176471 196 249.41176471 196 252 C196.66 252 197.32 252 198 252 C199.33203125 253.5390625 199.33203125 253.5390625 200.8125 255.625 C202.74577783 258.30403857 204.70823359 260.88105804 206.875 263.375 C209 266 209 266 209 268 C209.66 268 210.32 268 211 268 C215 273.41176471 215 273.41176471 215 276 C215.66 276 216.32 276 217 276 C218.44526736 277.73548169 219.8087222 279.53975963 221.125 281.375 C221.84945312 282.37273437 222.57390625 283.37046875 223.3203125 284.3984375 C225 287 225 287 225 289 C225.66 289 226.32 289 227 289 C228.33203125 290.5390625 228.33203125 290.5390625 229.8125 292.625 C231.74577783 295.30403857 233.70823359 297.88105804 235.875 300.375 C238 303 238 303 238 305 C238.66 305 239.32 305 240 305 C244 310.41176471 244 310.41176471 244 313 C244.66 313 245.32 313 246 313 C250 317.35294118 250 317.35294118 250 321 C250.66 321 251.32 321 252 321 C257 326.47619048 257 326.47619048 257 329 C257.66 329 258.32 329 259 329 C259.8353125 330.5778125 259.8353125 330.5778125 260.6875 332.1875 C262.19333758 334.85498372 263.4643868 336.4643868 265.6875 338.6875 C267.93480958 340.93480958 268.65690753 341.91216774 269 345 C269.66 345 270.32 345 271 345 C271.66 346.65 272.32 348.3 273 350 C273.66 350 274.32 350 275 350 C279 355.41176471 279 355.41176471 279 358 C279.66 358 280.32 358 281 358 C286 363.47619048 286 363.47619048 286 366 C286.66 366 287.32 366 288 366 C288 366.99 288 367.98 288 369 C286.67366044 369.90749549 285.33732713 370.80208165 283.96875 371.64453125 C280.53891107 374.00594813 277.57519039 376.90060939 274.5078125 379.70703125 C272.36243016 381.66861915 270.19468199 383.59409196 268 385.5 C264.97245233 388.13689636 261.98062721 390.81016569 259 393.5 C252.81802918 399.07036032 246.5850055 404.55214109 240.1875 409.875 C238.81658203 411.01582031 238.81658203 411.01582031 237.41796875 412.1796875 C235 414 235 414 232 415 C231.7525 415.5775 231.505 416.155 231.25 416.75 C229.62438638 419.67610452 227.53578373 420.86319611 224.80078125 422.71484375 C221.34889742 425.17833568 218.59477669 428.37307322 215.6875 431.4375 C212.9611378 434.03705466 210.12866684 436.19901063 207.0625 438.375 C204.87631934 440.02809357 204.87631934 440.02809357 202.6875 442.34375 C199.10477604 445.88481438 195.17103299 448.8438915 191.171875 451.89453125 C186.61824036 455.40874929 182.64820163 459.26270639 178.6875 463.4375 C175.91469923 466.08133329 173.00347059 468.26575323 169.91796875 470.5234375 C167.38687841 472.47201622 165.2258668 474.71397464 163 477 C161.33333333 478.33333333 159.66666667 479.66666667 158 481 C157.25105469 481.75667969 156.50210938 482.51335937 155.73046875 483.29296875 C152.87028795 486.12859864 149.90229692 488.7344865 146.8125 491.3125 C146.27947266 491.76689453 145.74644531 492.22128906 145.19726562 492.68945312 C141.23954417 496 141.23954417 496 139 496 C138.814375 496.556875 138.62875 497.11375 138.4375 497.6875 C136.652113 500.5596443 134.56869449 501.84091491 131.80078125 503.71484375 C128.34889742 506.17833568 125.59477669 509.37307322 122.6875 512.4375 C119.91593949 515.08015071 117.00674118 517.26386782 113.921875 519.51953125 C111.39079039 521.46928951 109.22531316 523.71287259 107 526 C103.37931034 529 103.37931034 529 101 529 C100.67 529.99 100.34 530.98 100 532 C98.546875 533.2109375 98.546875 533.2109375 96.75 534.375 C92.77065755 537.08225757 89.58676849 540.29569311 86.3125 543.8125 C85 545 85 545 83 545 C82.814375 545.556875 82.62875 546.11375 82.4375 546.6875 C80.652113 549.5596443 78.56869449 550.84091491 75.80078125 552.71484375 C73.24038135 554.54211396 71.16245837 556.72372803 69 559 C65.49339853 562.59651432 61.99595554 565.95959905 58 569 C57.01 569 56.02 569 55 569 C54.814375 569.556875 54.62875 570.11375 54.4375 570.6875 C52.652113 573.5596443 50.56869449 574.84091491 47.80078125 576.71484375 C44.34889742 579.17833568 41.59477669 582.37307322 38.6875 585.4375 C35.91443377 588.08158641 33.00094636 590.26572227 29.91796875 592.52734375 C27.37719608 594.47820179 25.20255417 596.67838885 23 599 C20.20666678 601.86684199 17.35724577 604.64351534 14.375 607.3125 C13.80523438 607.82425781 13.23546875 608.33601562 12.6484375 608.86328125 C11 610 11 610 8 610 C7.773125 610.5775 7.54625 611.155 7.3125 611.75 C5.65151778 614.59739809 3.68475439 616.12067193 1 618 C0.34 618 -0.32 618 -1 618 C-1.226875 618.5775 -1.45375 619.155 -1.6875 619.75 C-3.34848222 622.59739809 -5.31524561 624.12067193 -8 626 C-8.66 626 -9.32 626 -10 626 C-10.185625 626.556875 -10.37125 627.11375 -10.5625 627.6875 C-12.347887 630.5596443 -14.43130551 631.84091491 -17.19921875 633.71484375 C-19.75961865 635.54211396 -21.83754163 637.72372803 -24 640 C-27.50660147 643.59651432 -31.00404446 646.95959905 -35 650 C-35.99 650 -36.98 650 -38 650 C-38.185625 650.556875 -38.37125 651.11375 -38.5625 651.6875 C-40.347887 654.5596443 -42.43130551 655.84091491 -45.19921875 657.71484375 C-47.75961865 659.54211396 -49.83754163 661.72372803 -52 664 C-55.77252291 667.87179983 -59.62869133 671.79584176 -64 675 C-64.66 675 -65.32 675 -66 675 C-66.185625 675.556875 -66.37125 676.11375 -66.5625 676.6875 C-68.3453259 679.55552427 -70.42105285 680.83577317 -73.1875 682.703125 C-75.74510992 684.533139 -77.84393445 686.7207307 -80 689 C-80.66 689.66 -81.32 690.32 -82 691 C-82.99 691 -83.98 691 -85 691 C-85.3403125 691.86625 -85.3403125 691.86625 -85.6875 692.75 C-87.34848222 695.59739809 -89.31524561 697.12067193 -92 699 C-92.66 699 -93.32 699 -94 699 C-94.3403125 699.86625 -94.3403125 699.86625 -94.6875 700.75 C-96.34848222 703.59739809 -98.31524561 705.12067193 -101 707 C-101.66 707 -102.32 707 -103 707 C-103.185625 707.556875 -103.37125 708.11375 -103.5625 708.6875 C-105.347887 711.5596443 -107.43130551 712.84091491 -110.19921875 714.71484375 C-112.75961865 716.54211396 -114.83754163 718.72372803 -117 721 C-120.50660147 724.59651432 -124.00404446 727.95959905 -128 731 C-128.99 731 -129.98 731 -131 731 C-131.309375 731.8353125 -131.309375 731.8353125 -131.625 732.6875 C-133.57683032 735.97012371 -135.94230994 737.70673246 -139 740 C-139.66 740 -140.32 740 -141 740 C-141.3403125 740.86625 -141.3403125 740.86625 -141.6875 741.75 C-143.34848222 744.59739809 -145.31524561 746.12067193 -148 748 C-148.66 748 -149.32 748 -150 748 C-150.3403125 748.86625 -150.3403125 748.86625 -150.6875 749.75 C-152.34848222 752.59739809 -154.31524561 754.12067193 -157 756 C-157.66 756 -158.32 756 -159 756 C-159.185625 756.556875 -159.37125 757.11375 -159.5625 757.6875 C-161.34741397 760.55888334 -163.42363625 761.84124357 -166.19921875 763.703125 C-168.24964562 765.10131754 -168.24964562 765.10131754 -170.625 767.6875 C-173 770 -173 770 -175.6875 771.0625 C-178.60441141 772.24503165 -178.69583237 773.22864378 -180 776 C-184.44444444 780 -184.44444444 780 -187 780 C-187.185625 780.556875 -187.37125 781.11375 -187.5625 781.6875 C-189.347887 784.5596443 -191.43130551 785.84091491 -194.19921875 787.71484375 C-196.75961865 789.54211396 -198.83754163 791.72372803 -201 794 C-204.77252291 797.87179983 -208.62869133 801.79584176 -213 805 C-213.66 805 -214.32 805 -215 805 C-215.25394531 805.60070313 -215.50789063 806.20140625 -215.76953125 806.8203125 C-217.14827291 809.26265487 -218.39978326 810.28393571 -220.6875 811.875 C-224.17409159 814.36451531 -227.38256775 817.02139865 -230.5546875 819.8984375 C-232 821 -232 821 -234 821 C-234.3403125 821.86625 -234.3403125 821.86625 -234.6875 822.75 C-236.34848222 825.59739809 -238.31524561 827.12067193 -241 829 C-241.66 829 -242.32 829 -243 829 C-243.3403125 829.86625 -243.3403125 829.86625 -243.6875 830.75 C-245.34848222 833.59739809 -247.31524561 835.12067193 -250 837 C-250.66 837 -251.32 837 -252 837 C-252.185625 837.556875 -252.37125 838.11375 -252.5625 838.6875 C-254.34741397 841.55888334 -256.42363625 842.84124357 -259.19921875 844.703125 C-261.24964562 846.10131754 -261.24964562 846.10131754 -263.625 848.6875 C-266 851 -266 851 -268.6875 852.0625 C-271.60441141 853.24503165 -271.69583237 854.22864378 -273 857 C-277.44444444 861 -277.44444444 861 -280 861 C-280.309375 861.8353125 -280.309375 861.8353125 -280.625 862.6875 C-282.57683032 865.97012371 -284.94230994 867.70673246 -288 870 C-288.66 870 -289.32 870 -290 870 C-290.3403125 870.86625 -290.3403125 870.86625 -290.6875 871.75 C-292.34848222 874.59739809 -294.31524561 876.12067193 -297 878 C-297.66 878 -298.32 878 -299 878 C-299.3403125 878.86625 -299.3403125 878.86625 -299.6875 879.75 C-301.34848222 882.59739809 -303.31524561 884.12067193 -306 886 C-306.66 886 -307.32 886 -308 886 C-308.20625 886.5775 -308.4125 887.155 -308.625 887.75 C-310.51625222 890.84477636 -312.90035937 892.1918763 -316 894 C-316.66 894 -317.32 894 -318 894 C-318.3403125 894.86625 -318.3403125 894.86625 -318.6875 895.75 C-320.34848222 898.59739809 -322.31524561 900.12067193 -325 902 C-325.66 902 -326.32 902 -327 902 C-327.3403125 902.86625 -327.3403125 902.86625 -327.6875 903.75 C-329.34848222 906.59739809 -331.31524561 908.12067193 -334 910 C-334.66 910 -335.32 910 -336 910 C-336.3403125 910.86625 -336.3403125 910.86625 -336.6875 911.75 C-338.34848222 914.59739809 -340.31524561 916.12067193 -343 918 C-343.66 918 -344.32 918 -345 918 C-345.20625 918.556875 -345.4125 919.11375 -345.625 919.6875 C-347.57683032 922.97012371 -349.94230994 924.70673246 -353 927 C-353.66 927 -354.32 927 -355 927 C-355.3403125 927.8971875 -355.3403125 927.8971875 -355.6875 928.8125 C-357 931 -357 931 -359.14453125 932.234375 C-362.87724323 934.54242673 -365.83765429 937.41367584 -369 940.4375 C-380.12092238 951 -380.12092238 951 -383 951 C-383.3403125 951.86625 -383.3403125 951.86625 -383.6875 952.75 C-385.34848222 955.59739809 -387.31524561 957.12067193 -390 959 C-390.66 959 -391.32 959 -392 959 C-392.3403125 959.86625 -392.3403125 959.86625 -392.6875 960.75 C-394.34848222 963.59739809 -396.31524561 965.12067193 -399 967 C-399.66 967 -400.32 967 -401 967 C-401.3403125 967.8971875 -401.3403125 967.8971875 -401.6875 968.8125 C-403.87192553 972.45320921 -407.07594205 973.69198068 -411 975 C-411.433125 975.8971875 -411.433125 975.8971875 -411.875 976.8125 C-413.37206594 979.72346154 -415.34303887 981.14012721 -418 983 C-418.66 983 -419.32 983 -420 983 C-420.25394531 983.59039063 -420.50789062 984.18078125 -420.76953125 984.7890625 C-422.13506908 987.24269555 -423.54091684 988.57844906 -425.6875 990.375 C-426.39519531 990.97183594 -427.10289062 991.56867187 -427.83203125 992.18359375 C-428.54746094 992.78300781 -429.26289063 993.38242188 -430 994 C-430.99580078 994.88365234 -430.99580078 994.88365234 -432.01171875 995.78515625 C-432.93404297 996.60306641 -432.93404297 996.60306641 -433.875 997.4375 C-434.42929687 997.93121094 -434.98359375 998.42492188 -435.5546875 998.93359375 C-437 1000 -437 1000 -439 1000 C-439.226875 1000.5775 -439.45375 1001.155 -439.6875 1001.75 C-441.34848222 1004.59739809 -443.31524561 1006.12067193 -446 1008 C-446.66 1008 -447.32 1008 -448 1008 C-448.226875 1008.598125 -448.45375 1009.19625 -448.6875 1009.8125 C-450 1012 -450 1012 -452.2578125 1013.34375 C-456.25397907 1015.75738907 -459.40307926 1018.95012098 -462.79296875 1022.13671875 C-465 1024 -465 1024 -467 1024 C-467.226875 1024.5775 -467.45375 1025.155 -467.6875 1025.75 C-469.34848222 1028.59739809 -471.31524561 1030.12067193 -474 1032 C-474.66 1032 -475.32 1032 -476 1032 C-476.226875 1032.5775 -476.45375 1033.155 -476.6875 1033.75 C-478.34848222 1036.59739809 -480.31524561 1038.12067193 -483 1040 C-483.66 1040 -484.32 1040 -485 1040 C-485.226875 1040.5775 -485.45375 1041.155 -485.6875 1041.75 C-487.34848222 1044.59739809 -489.31524561 1046.12067193 -492 1048 C-492.66 1048 -493.32 1048 -494 1048 C-494.3403125 1048.8971875 -494.3403125 1048.8971875 -494.6875 1049.8125 C-496 1052 -496 1052 -498.125 1053.21484375 C-501.98240622 1055.60999951 -505.04300688 1058.61839438 -508.3125 1061.75 C-509.65022011 1063.01519214 -510.98875349 1064.27952496 -512.328125 1065.54296875 C-513.28235352 1066.44474854 -513.28235352 1066.44474854 -514.25585938 1067.36474609 C-517.42514799 1070.33617599 -520.69105336 1073.1862164 -524 1076 C-524.86044922 1076.75410156 -524.86044922 1076.75410156 -525.73828125 1077.5234375 C-529.76225829 1081 -529.76225829 1081 -532 1081 C-532.226875 1081.5775 -532.45375 1082.155 -532.6875 1082.75 C-534.34848222 1085.59739809 -536.31524561 1087.12067193 -539 1089 C-539.66 1089 -540.32 1089 -541 1089 C-541.309375 1089.8971875 -541.309375 1089.8971875 -541.625 1090.8125 C-543.50926082 1093.81018767 -545.81132084 1094.61361776 -549 1096 C-548.32853897 1092.49530095 -546.89531674 1089.83264109 -545.125 1086.75 C-543.3212312 1083.5228781 -541.68421144 1080.4401977 -540.5 1076.9375 C-539.38957562 1073.71135579 -537.86795679 1071.0200342 -536.0625 1068.125 C-534.08555183 1064.93481468 -532.45018334 1061.88526342 -531.125 1058.375 C-526.96750257 1047.386096 -521.06299663 1037.05130575 -515.453125 1026.75390625 C-513.77588183 1023.57525993 -512.40790407 1020.30551391 -511 1017 C-510.03258457 1015.22271965 -509.05209625 1013.45252615 -508.0625 1011.6875 C-505.63232712 1007.31318881 -503.7092312 1002.93341994 -501.92578125 998.265625 C-500.8478138 995.62756119 -499.52019074 993.26400516 -498.05859375 990.82421875 C-496.34609416 987.87315857 -494.86978989 984.80812398 -493.359375 981.75 C-492.39946184 979.80810671 -491.42975895 977.87103793 -490.453125 975.9375 C-489.93234375 974.90625 -489.4115625 973.875 -488.875 972.8125 C-488.39804687 971.87019531 -487.92109375 970.92789063 -487.4296875 969.95703125 C-486.41027018 967.84856428 -485.44871273 965.71171331 -484.52734375 963.55859375 C-483.02401601 960.05595546 -481.39505819 956.65726553 -479.6875 953.25 C-479.23238037 952.34048584 -479.23238037 952.34048584 -478.76806641 951.41259766 C-476.88873753 947.68237001 -474.91800921 944.01757457 -472.875 940.375 C-470.80296579 936.64204948 -469.08552048 932.9013012 -467.5 928.9375 C-465.55218883 924.08362972 -463.1603693 919.83159088 -460.39453125 915.40625 C-459.05560485 913.09594563 -458.06853713 910.86893073 -457.125 908.375 C-452.96642664 897.38325215 -447.05965391 887.04660056 -441.44921875 876.74609375 C-439.90764582 873.91438154 -439.90764582 873.91438154 -438.5 870.5 C-437.01966165 867.04587718 -435.30997033 863.85438353 -433.5 860.5625 C-431.56753317 857.0283853 -429.73289379 853.62886973 -428.4375 849.8125 C-427.3551897 846.62569746 -425.84282362 843.98148939 -424.0625 841.125 C-421.51015291 837.01987031 -419.69792802 832.95897114 -418 828.4453125 C-416.65286326 825.15114218 -414.91754334 822.14641214 -413.14453125 819.06640625 C-411.8919234 816.80487193 -410.91819383 814.47118942 -409.9453125 812.078125 C-408.10319752 808.02851686 -405.87178798 804.1718274 -403.71875 800.28125 C-401.95581322 796.91564342 -400.48210204 793.4971384 -399 790 C-397.91386849 787.76199053 -396.80928183 785.53285438 -395.6875 783.3125 C-395.06507424 782.07683799 -394.44267889 780.84116066 -393.8203125 779.60546875 C-393.51254883 778.99622559 -393.20478516 778.38698242 -392.88769531 777.75927734 C-391.60546541 775.21809233 -390.33403738 772.67154891 -389.0625 770.125 C-379.9296875 751.859375 -379.9296875 751.859375 -378.96875 749.93774414 C-378.31224064 748.62455997 -377.65599892 747.31124197 -377 745.99780273 C-375.38625755 742.76758135 -373.76888169 739.53933845 -372.140625 736.31640625 C-368.66368154 729.42095535 -365.26531861 722.49837641 -362 715.5 C-359.31790372 709.75690182 -356.57834396 704.04763722 -353.75 698.375 C-353.43289063 697.73626953 -353.11578125 697.09753906 -352.7890625 696.43945312 C-351.22887523 693.3289117 -349.60421691 690.28411444 -347.8515625 687.27734375 C-346.47573637 684.84207344 -345.44447358 682.81812896 -344.625 680.1875 C-343.45977202 676.88283704 -341.91802098 674.09662382 -340.0625 671.125 C-337.51015291 667.01987031 -335.69792802 662.95897114 -334 658.4453125 C-332.68424714 655.22788558 -331.01516723 652.28790533 -329.24609375 649.30078125 C-327.61405952 646.28740143 -326.34317395 643.15207154 -325 640 C-323.91386849 637.76199053 -322.80928183 635.53285438 -321.6875 633.3125 C-321.07027838 632.08725677 -320.45309151 630.86199604 -319.8359375 629.63671875 C-319.52881836 629.02876465 -319.22169922 628.42081055 -318.90527344 627.79443359 C-317.5333948 625.07509487 -316.17323679 622.34992722 -314.8125 619.625 C-311.60416667 613.20833333 -308.39583333 606.79166667 -305.1875 600.375 C-304.671875 599.34246094 -304.15625 598.30992187 -303.625 597.24609375 C-302.54583432 595.09035654 -301.46252919 592.93668635 -300.375 590.78515625 C-297.00864598 584.10699561 -293.74810634 577.39084749 -290.5625 570.625 C-285.55154509 559.99295904 -280.48564441 549.38878474 -274.75 539.125 C-272.43793956 534.96827678 -270.68143935 530.77267214 -268.99609375 526.33203125 C-267.71582698 523.3347008 -266.00630189 520.76637793 -264.21484375 518.0546875 C-262.88474269 515.80506321 -261.98051251 513.5704939 -261.0625 511.125 C-259.68606376 507.48050891 -258.06568852 504.30303077 -256 501 C-253.46471293 496.93972823 -251.68153732 492.91539921 -250 488.4453125 C-248.65395067 485.15380124 -246.92062984 482.15138908 -245.1484375 479.07421875 C-243.85869539 476.82866722 -243.85869539 476.82866722 -242.5625 473.625 C-241.19715786 470.45740624 -239.68211308 467.56715899 -238 464.5625 C-236.26292391 461.43661246 -234.69959072 458.45258413 -233.5625 455.0625 C-231.92796417 450.29591946 -229.20907347 446.182776 -226.62890625 441.87890625 C-224.98152599 438.96734929 -223.85839053 436.17735223 -222.7890625 433.02734375 C-221.44510435 429.57430276 -219.54814044 426.42250743 -217.74609375 423.19140625 C-212.96620613 414.45501211 -208.51423919 405.6084736 -204.9921875 396.2890625 C-203.48556486 392.81315356 -201.4417256 389.70676096 -199.4375 386.5 C-198.02464999 384.04286954 -196.99398358 381.65062288 -196 379 C-194.64795374 375.39454331 -193.04107512 372.26572019 -191 369 C-188.46471293 364.93972823 -186.68153732 360.91539921 -185 356.4453125 C-183.65395067 353.15380124 -181.92062984 350.15138908 -180.1484375 347.07421875 C-178.85869539 344.82866722 -178.85869539 344.82866722 -177.5625 341.625 C-176.19236999 338.44629838 -174.67612353 335.52278788 -173 332.5 C-171.37029196 329.55935322 -169.88129247 326.72129536 -168.5625 323.625 C-167.07368046 320.17093867 -165.37603825 316.98030143 -163.5625 313.6875 C-160.98023976 308.96689009 -158.85712196 304.29665662 -156.96484375 299.26953125 C-155.68009493 296.24751074 -153.94216894 293.64343851 -152.14453125 290.90625 C-150.71316996 288.52227625 -149.84430126 286.00564598 -148.93359375 283.38671875 C-145.96719545 275.80316493 -141.88450901 268.54211622 -137.9375 261.4375 C-135.18989503 256.47431967 -132.84715071 251.37440433 -130.51171875 246.20703125 C-129.0579494 243.12293659 -127.47836894 240.16138456 -125.8125 237.1875 C-124.11044988 234.14404087 -122.62811721 231.23608833 -121.5 227.9375 C-120.38957562 224.71135579 -118.86795679 222.0200342 -117.0625 219.125 C-115.00422263 215.81759607 -113.36630842 212.64730029 -112 209 C-110.64795374 205.39454331 -109.04107512 202.26572019 -107 199 C-104.46471293 194.93972823 -102.68153732 190.91539921 -101 186.4453125 C-99.65395067 183.15380124 -97.92062984 180.15138908 -96.1484375 177.07421875 C-94.85869539 174.82866722 -94.85869539 174.82866722 -93.5625 171.625 C-91.79805555 167.53148887 -89.6902537 163.72232426 -87.5 159.84375 C-86.13311934 157.25237209 -84.95817338 154.63324935 -83.82617188 151.93261719 C-82.23148267 148.20225084 -80.48411877 144.54210097 -78.75 140.875 C-78.16001221 139.62638184 -78.16001221 139.62638184 -77.55810547 138.35253906 C-74.72616806 132.40902332 -71.72282133 126.60600915 -68.5078125 120.859375 C-66.81132206 117.64219625 -65.42181465 114.34695904 -64 111 C-62.91386849 108.76199053 -61.80928183 106.53285438 -60.6875 104.3125 C-60.06507424 103.07683799 -59.44267889 101.84116066 -58.8203125 100.60546875 C-58.51254883 99.99622559 -58.20478516 99.38698242 -57.88769531 98.75927734 C-56.60546541 96.21809233 -55.33403738 93.67154891 -54.0625 91.125 C-37.140625 57.28125 -37.140625 57.28125 -36.20996094 55.42016602 C-35.54629145 54.09265826 -34.88289776 52.76501261 -34.21972656 51.43725586 C-32.43384048 47.86261382 -30.64353579 44.29032253 -28.84375 40.72265625 C-24.75011791 32.66146394 -24.75011791 32.66146394 -21 24.4375 C-18.8864884 19.51234852 -16.29355866 14.83927349 -13.72851562 10.13842773 C-12.26598047 7.44581103 -10.9713828 4.9141484 -10 2 C-6.76397141 -0.27720531 -3.86958008 -0.63176818 0 0 Z " fill="#D44BCA" transform="translate(871,356)"/>
<path d="M0 0 C2.93092432 0.32421729 3.8800166 0.86338025 5.859375 3.1171875 C6.48328125 4.02726563 7.1071875 4.93734375 7.75 5.875 C8.77867187 7.35419922 8.77867187 7.35419922 9.828125 8.86328125 C10.54484375 9.89839844 11.2615625 10.93351563 12 12 C14.16990743 14.93380341 16.34920423 17.86037567 18.53125 20.78515625 C20 23 20 23 20 25 C20.66 25 21.32 25 22 25 C23.7265625 27.1171875 23.7265625 27.1171875 25.625 29.875 C26.57246094 31.23238281 26.57246094 31.23238281 27.5390625 32.6171875 C29 35 29 35 29 37 C29.66 37 30.32 37 31 37 C32.7265625 39.1171875 32.7265625 39.1171875 34.625 41.875 C35.57246094 43.23238281 35.57246094 43.23238281 36.5390625 44.6171875 C38 47 38 47 38 49 C38.66 49 39.32 49 40 49 C41.7265625 50.86328125 41.7265625 50.86328125 43.625 53.3125 C44.57246094 54.51326172 44.57246094 54.51326172 45.5390625 55.73828125 C47 58 47 58 47 61 C47.66 61 48.32 61 49 61 C59 72.06024096 59 72.06024096 59 77 C59.66 77 60.32 77 61 77 C63.43379513 79.67717465 65.31717976 82.47539911 67.0625 85.625 C68.61403339 88.32767107 69.80945645 89.91898363 72 92 C72 92.66 72 93.32 72 94 C72.66 94 73.32 94 74 94 C75.47265625 95.86328125 75.47265625 95.86328125 77.0625 98.3125 C77.58972656 99.11300781 78.11695313 99.91351562 78.66015625 100.73828125 C80 103 80 103 81 106 C81.66 106 82.32 106 83 106 C84.47265625 107.86328125 84.47265625 107.86328125 86.0625 110.3125 C86.58972656 111.11300781 87.11695313 111.91351562 87.66015625 112.73828125 C89 115 89 115 90 118 C90.66 118 91.32 118 92 118 C93.47265625 119.86328125 93.47265625 119.86328125 95.0625 122.3125 C95.58972656 123.11300781 96.11695313 123.91351562 96.66015625 124.73828125 C98 127 98 127 99 130 C99.66 130 100.32 130 101 130 C102.47265625 131.86328125 102.47265625 131.86328125 104.0625 134.3125 C104.58972656 135.11300781 105.11695313 135.91351562 105.66015625 136.73828125 C107 139 107 139 108 142 C108.66 142 109.32 142 110 142 C111.296875 143.6875 111.296875 143.6875 112.75 146 C115.65069411 150.49432847 118.75723186 154.74903944 122 159 C126.92019181 165.49389478 131.78815478 172.02316238 136.5625 178.625 C137.22523926 179.53113037 137.22523926 179.53113037 137.90136719 180.45556641 C141 184.7682618 141 184.7682618 141 187 C141.66 187 142.32 187 143 187 C144.7265625 189.1171875 144.7265625 189.1171875 146.625 191.875 C147.25664063 192.77992188 147.88828125 193.68484375 148.5390625 194.6171875 C150 197 150 197 150 199 C150.66 199 151.32 199 152 199 C153.5859375 201.01171875 153.5859375 201.01171875 155.375 203.6875 C157.32178784 206.56094259 159.2467066 209.30363889 161.4375 212 C163 214 163 214 163 216 C163.66 216 164.32 216 165 216 C166.47265625 217.86328125 166.47265625 217.86328125 168.0625 220.3125 C168.58972656 221.11300781 169.11695313 221.91351562 169.66015625 222.73828125 C171 225 171 225 172 228 C172.66 228 173.32 228 174 228 C175.47265625 229.86328125 175.47265625 229.86328125 177.0625 232.3125 C177.58972656 233.11300781 178.11695313 233.91351562 178.66015625 234.73828125 C180 237 180 237 181 240 C181.66 240 182.32 240 183 240 C184.47265625 241.86328125 184.47265625 241.86328125 186.0625 244.3125 C186.58972656 245.11300781 187.11695313 245.91351562 187.66015625 246.73828125 C189 249 189 249 190 252 C190.66 252 191.32 252 192 252 C199 259.90322581 199 259.90322581 199 264 C199.66 264 200.32 264 201 264 C203.43379513 266.67717465 205.31717976 269.47539911 207.0625 272.625 C208.61403339 275.32767107 209.80945645 276.91898363 212 279 C212 279.66 212 280.32 212 281 C212.66 281 213.32 281 214 281 C214.7734375 282.4540625 214.7734375 282.4540625 215.5625 283.9375 C217.7327456 287.73163567 220.30341919 291.07533011 223.01953125 294.4921875 C226.77868566 299.25230018 230.3697531 304.14133622 234 309 C235.49958486 311.00031129 236.9995818 313.00031372 238.5 315 C247.5 327 247.5 327 249.72265625 329.97265625 C251.30292728 332.0733596 252.89195304 334.16388549 254.49609375 336.24609375 C254.90472656 336.78041016 255.31335937 337.31472656 255.734375 337.86523438 C256.86995252 339.34922772 258.010979 340.82904685 259.15234375 342.30859375 C260.88398743 344.83100917 262.00177729 347.12031042 263 350 C263.66 350 264.32 350 265 350 C266.7265625 352.1171875 266.7265625 352.1171875 268.625 354.875 C269.25664063 355.77992188 269.88828125 356.68484375 270.5390625 357.6171875 C272 360 272 360 272 362 C272.66 362 273.32 362 274 362 C275.7265625 364.1171875 275.7265625 364.1171875 277.625 366.875 C278.25664063 367.77992188 278.88828125 368.68484375 279.5390625 369.6171875 C281 372 281 372 281 374 C281.66 374 282.32 374 283 374 C284.7265625 376.1171875 284.7265625 376.1171875 286.625 378.875 C287.25664063 379.77992188 287.88828125 380.68484375 288.5390625 381.6171875 C290 384 290 384 290 386 C290.66 386 291.32 386 292 386 C293.7265625 388.1171875 293.7265625 388.1171875 295.625 390.875 C296.25664063 391.77992188 296.88828125 392.68484375 297.5390625 393.6171875 C299 396 299 396 299 398 C299.66 398 300.32 398 301 398 C302.40234375 399.57421875 302.40234375 399.57421875 303.9375 401.6875 C304.47117187 402.42097656 305.00484375 403.15445312 305.5546875 403.91015625 C306.61505523 405.44339067 307.60899921 407.02311868 308.5625 408.625 C309.81907877 410.70108666 311.11061066 412.35954169 312.6875 414.1875 C315 417 315 417 315 419 C315.66 419 316.32 419 317 419 C317.8971875 420.6396875 317.8971875 420.6396875 318.8125 422.3125 C320.30229991 424.94218239 321.80273399 426.91259729 324 429 C324 429.66 324 430.32 324 431 C324.66 431 325.32 431 326 431 C326.8971875 432.6396875 326.8971875 432.6396875 327.8125 434.3125 C329.30229991 436.94218239 330.80273399 438.91259729 333 441 C333 441.66 333 442.32 333 443 C333.66 443 334.32 443 335 443 C335.8971875 444.6396875 335.8971875 444.6396875 336.8125 446.3125 C338.30229991 448.94218239 339.80273399 450.91259729 342 453 C342 453.66 342 454.32 342 455 C342.66 455 343.32 455 344 455 C345.47265625 456.86328125 345.47265625 456.86328125 347.0625 459.3125 C347.58972656 460.11300781 348.11695313 460.91351562 348.66015625 461.73828125 C350 464 350 464 351 467 C351.66 467 352.32 467 353 467 C353.33 468.65 353.66 470.3 354 472 C354.66 472 355.32 472 356 472 C357.7265625 473.86328125 357.7265625 473.86328125 359.625 476.3125 C360.25664063 477.11300781 360.88828125 477.91351562 361.5390625 478.73828125 C363 481 363 481 363 484 C363.66 484 364.32 484 365 484 C366.42188405 485.69543891 367.76143179 487.46017071 369.0625 489.25 C369.87488662 490.35685406 370.68738986 491.46362253 371.5 492.5703125 C371.91507813 493.14040039 372.33015625 493.71048828 372.7578125 494.29785156 C374.67275646 496.92186675 376.6166869 499.52382624 378.5625 502.125 C379.29726562 503.10984375 380.03203125 504.0946875 380.7890625 505.109375 C383.54457493 508.71198842 386.43281913 512.19373885 389.37109375 515.6484375 C391.22758647 518.32855409 392.10512929 520.8791946 393 524 C393.66 524 394.32 524 395 524 C396.5859375 526.01171875 396.5859375 526.01171875 398.375 528.6875 C400.32178784 531.56094259 402.2467066 534.30363889 404.4375 537 C406 539 406 539 406 541 C406.66 541 407.32 541 408 541 C409.47265625 542.86328125 409.47265625 542.86328125 411.0625 545.3125 C411.58972656 546.11300781 412.11695313 546.91351562 412.66015625 547.73828125 C414 550 414 550 415 553 C415.66 553 416.32 553 417 553 C418.47265625 554.86328125 418.47265625 554.86328125 420.0625 557.3125 C420.58972656 558.11300781 421.11695313 558.91351562 421.66015625 559.73828125 C423 562 423 562 424 565 C424.66 565 425.32 565 426 565 C427.47265625 566.86328125 427.47265625 566.86328125 429.0625 569.3125 C429.58972656 570.11300781 430.11695313 570.91351562 430.66015625 571.73828125 C432 574 432 574 433 577 C433.66 577 434.32 577 435 577 C436.47265625 578.86328125 436.47265625 578.86328125 438.0625 581.3125 C438.58972656 582.11300781 439.11695313 582.91351562 439.66015625 583.73828125 C441 586 441 586 442 589 C442.66 589 443.32 589 444 589 C445.296875 590.6875 445.296875 590.6875 446.75 593 C451.50906063 600.36849726 456.87445986 607.14026417 462.4609375 613.8984375 C464 616 464 616 464 618 C464.66 618 465.32 618 466 618 C466.8971875 619.6396875 466.8971875 619.6396875 467.8125 621.3125 C469.30229991 623.94218239 470.80273399 625.91259729 473 628 C473 628.66 473 629.32 473 630 C473.66 630 474.32 630 475 630 C475.8353125 631.546875 475.8353125 631.546875 476.6875 633.125 C478.16935478 635.74878589 479.7579543 637.99121313 481.75 640.25 C484 643 484 643 484 646 C484.66 646 485.32 646 486 646 C487.59236985 647.86271623 489.05356647 649.71656103 490.5 651.6875 C491.10521484 652.48317383 491.10521484 652.48317383 491.72265625 653.29492188 C494.03158831 656.40016879 495.74943737 659.33666707 497 663 C497.66 663 498.32 663 499 663 C506 670.90322581 506 670.90322581 506 675 C506.66 675 507.32 675 508 675 C515 682.90322581 515 682.90322581 515 687 C515.66 687 516.32 687 517 687 C524 694.90322581 524 694.90322581 524 699 C524.66 699 525.32 699 526 699 C527.7265625 701.1171875 527.7265625 701.1171875 529.625 703.875 C530.25664063 704.77992188 530.88828125 705.68484375 531.5390625 706.6171875 C533 709 533 709 533 711 C533.66 711 534.32 711 535 711 C536.7265625 713.1171875 536.7265625 713.1171875 538.625 715.875 C539.25664063 716.77992188 539.88828125 717.68484375 540.5390625 718.6171875 C542 721 542 721 542 723 C542.66 723 543.32 723 544 723 C544.66 724.65 545.32 726.3 546 728 C546.66 728 547.32 728 548 728 C549.47265625 729.86328125 549.47265625 729.86328125 551.0625 732.3125 C551.58972656 733.11300781 552.11695313 733.91351562 552.66015625 734.73828125 C554 737 554 737 555 740 C555.66 740 556.32 740 557 740 C558.19542478 741.68125012 559.30712843 743.42248083 560.375 745.1875 C562.70787316 749.02594989 565.15644568 752.52454472 568 756 C569.4229962 757.89108706 570.83935173 759.78718426 572.25 761.6875 C575.8973973 766.58094015 579.66845133 771.34328055 583.56640625 776.0390625 C585 778 585 778 585 780 C585.66 780 586.32 780 587 780 C587.804375 781.485 587.804375 781.485 588.625 783 C590.71668688 786.69431028 593.19205336 789.97959198 595.828125 793.30078125 C597 795 597 795 597 797 C597.66 797 598.32 797 599 797 C600.7265625 799.1171875 600.7265625 799.1171875 602.625 801.875 C603.25664063 802.77992188 603.88828125 803.68484375 604.5390625 804.6171875 C606 807 606 807 606 809 C606.66 809 607.32 809 608 809 C609.7265625 810.86328125 609.7265625 810.86328125 611.625 813.3125 C612.25664063 814.11300781 612.88828125 814.91351562 613.5390625 815.73828125 C615 818 615 818 615 821 C615.66 821 616.32 821 617 821 C618.7265625 822.86328125 618.7265625 822.86328125 620.625 825.3125 C621.25664063 826.11300781 621.88828125 826.91351562 622.5390625 827.73828125 C624 830 624 830 624 833 C624.66 833 625.32 833 626 833 C627.7265625 834.86328125 627.7265625 834.86328125 629.625 837.3125 C630.25664063 838.11300781 630.88828125 838.91351562 631.5390625 839.73828125 C633 842 633 842 633 845 C633.66 845 634.32 845 635 845 C636.625 847 636.625 847 638 849 C637.67 849.66 637.34 850.32 637 851 C636.48050781 850.67386719 635.96101563 850.34773438 635.42578125 850.01171875 C634.72839844 849.57472656 634.03101563 849.13773438 633.3125 848.6875 C632.62800781 848.25824219 631.94351563 847.82898437 631.23828125 847.38671875 C629.72402094 846.44856446 628.20017713 845.52573317 626.66796875 844.6171875 C624.62606063 843.37948624 622.62238101 842.11497079 620.625 840.80859375 C620.03203125 840.42123047 619.4390625 840.03386719 618.828125 839.63476562 C617.60758158 838.83541401 616.38883077 838.03331864 615.171875 837.22851562 C611.86214327 835.07359247 608.65505835 833.45799202 605 832 C604.67 831.34 604.34 830.68 604 830 C602.32093872 829.01575675 602.32093872 829.01575675 600.3125 828.125 C596.64435645 826.36981303 593.37369977 824.27528589 590 822 C589.01 821.67 588.02 821.34 587 821 C585.99587067 820.00414646 584.99629405 819.00369227 584 818 C582.61089374 817.14123082 581.19106331 816.33089914 579.75 815.5625 C578.96238281 815.13710937 578.17476562 814.71171875 577.36328125 814.2734375 C576.58339844 813.85320313 575.80351563 813.43296875 575 813 C572.65969012 811.67851354 570.33048205 810.33878756 568 809 C568 808.34 568 807.68 568 807 C567.071875 806.71125 566.14375 806.4225 565.1875 806.125 C562 805 562 805 559 803 C559 802.34 559 801.68 559 801 C558.26652344 800.89300781 557.53304687 800.78601562 556.77734375 800.67578125 C553.80569628 799.95272216 552.04976588 798.93878346 549.5625 797.1875 C548.84191406 796.68605469 548.12132812 796.18460938 547.37890625 795.66796875 C546.20134766 794.84232422 546.20134766 794.84232422 545 794 C541.034399 791.31895524 537.0204814 788.74830973 532.9375 786.25 C532.37732178 785.90638428 531.81714355 785.56276855 531.23999023 785.20874023 C528.41457447 783.47576068 525.58638872 781.74734829 522.7578125 780.01953125 C516.37248587 776.10871384 510.03870771 772.13006691 503.75610352 768.05688477 C500.5391471 765.97382399 497.29152059 763.96254983 494 762 C490.74944322 759.98213246 487.50067391 757.96145906 484.25390625 755.9375 C481.2275564 754.13549577 478.17075207 752.53037807 475 751 C475 750.34 475 749.68 475 749 C474.195625 748.79375 473.39125 748.5875 472.5625 748.375 C468.67737998 746.87547999 465.645976 744.90477115 462.24609375 742.53515625 C459.88329354 740.92023367 457.45529578 739.47030157 455 738 C453.84866641 737.26231311 452.7004314 736.51977649 451.5546875 735.7734375 C450.95269531 735.3815625 450.35070313 734.9896875 449.73046875 734.5859375 C448.48443355 733.77273558 447.23965699 732.95760209 445.99609375 732.140625 C443.3465628 730.41985436 441.01131401 729.00377134 438 728 C438 727.34 438 726.68 438 726 C437.278125 725.731875 436.55625 725.46375 435.8125 725.1875 C429.87552937 722.68077907 424.56930453 718.81089588 419.171875 715.31640625 C413.95233953 711.94640183 408.63528467 708.78617571 403.25 705.6875 C398.73265604 703.05932818 394.34438753 700.31522536 390.03515625 697.359375 C388.60737487 696.40569377 387.15243486 695.49203166 385.6796875 694.609375 C381.80607189 692.28294697 378.03649087 689.79603301 374.25976562 687.31640625 C370.61104332 684.94772751 366.93589787 682.87480937 363 681 C363 680.34 363 679.68 363 679 C362.26910156 678.89558594 361.53820313 678.79117188 360.78515625 678.68359375 C357.75856408 677.94074154 355.96429121 676.85981757 353.4375 675.0625 C350.69507656 673.1280696 348.04084714 671.42733641 345 670 C345 669.34 345 668.68 345 668 C344.21625 667.814375 343.4325 667.62875 342.625 667.4375 C338.38953291 665.75791822 335.12675549 663.43236618 331.46484375 660.75390625 C327.24671304 657.75241546 322.73357783 655.26733645 318.25 652.6875 C313.73265604 650.05932818 309.34438753 647.31522536 305.03515625 644.359375 C303.60886843 643.40669139 302.15523878 642.49428291 300.68359375 641.61328125 C298.6325168 640.38024664 296.62622546 639.11849695 294.625 637.80859375 C294.03203125 637.42123047 293.4390625 637.03386719 292.828125 636.63476562 C291.60758158 635.83541401 290.38883077 635.03331864 289.171875 634.22851562 C285.86214327 632.07359247 282.65505835 630.45799202 279 629 C278.67 628.34 278.34 627.68 278 627 C276.32093872 626.01575675 276.32093872 626.01575675 274.3125 625.125 C270.64435645 623.36981303 267.37369977 621.27528589 264 619 C263.01 618.67 262.02 618.34 261 618 C259.99587067 617.00414646 258.99629405 616.00369227 258 615 C256.61089374 614.14123082 255.19106331 613.33089914 253.75 612.5625 C252.96238281 612.13710937 252.17476562 611.71171875 251.36328125 611.2734375 C250.58339844 610.85320313 249.80351563 610.43296875 249 610 C246.65969012 608.67851354 244.33048205 607.33878756 242 606 C242 605.34 242 604.68 242 604 C241.071875 603.71125 240.14375 603.4225 239.1875 603.125 C236 602 236 602 233 600 C233 599.34 233 598.68 233 598 C232.278125 597.90460937 231.55625 597.80921875 230.8125 597.7109375 C227.57571202 596.89274943 225.67426851 595.60563012 223 593.625 C219.74381001 591.23373548 216.48427061 589.04488443 213 587 C210.42702151 585.42335149 207.85752701 583.84115947 205.28881836 582.25756836 C202.44655884 580.50572802 199.6025739 578.75704879 196.75390625 577.015625 C190.36874108 573.10793518 184.03720435 569.12909224 177.75610352 565.05688477 C174.5391471 562.97382399 171.29152059 560.96254983 168 559 C164.74944322 556.98213246 161.50067391 554.96145906 158.25390625 552.9375 C155.2275564 551.13549577 152.17075207 549.53037807 149 548 C149 547.34 149 546.68 149 546 C148.195625 545.79375 147.39125 545.5875 146.5625 545.375 C142.67737998 543.87547999 139.645976 541.90477115 136.24609375 539.53515625 C133.88086902 537.91857657 131.46515759 536.46045051 129 535 C125.97490056 533.17366986 122.95612752 531.33700174 119.9375 529.5 C118.73383789 528.77103516 118.73383789 528.77103516 117.50585938 528.02734375 C116.72919922 527.55425781 115.95253906 527.08117188 115.15234375 526.59375 C114.45101318 526.16771484 113.74968262 525.74167969 113.02709961 525.30273438 C110.93812431 523.96023502 108.97976697 522.49745358 107 521 C105.33930323 519.99011683 103.67179033 518.99141054 102 518 C99.04291553 516.12788897 96.10973827 514.21848439 93.171875 512.31640625 C87.95233953 508.94640183 82.63528467 505.78617571 77.25 502.6875 C72.73265604 500.05932818 68.34438753 497.31522536 64.03515625 494.359375 C62.60737487 493.40569377 61.15243486 492.49203166 59.6796875 491.609375 C55.80607189 489.28294697 52.03649087 486.79603301 48.25976562 484.31640625 C44.61104332 481.94772751 40.93589787 479.87480937 37 478 C37 477.34 37 476.68 37 476 C36.28070312 475.9071875 35.56140625 475.814375 34.8203125 475.71875 C31.53085021 474.88043828 29.58672405 473.52342712 26.875 471.5 C24.16068162 469.48694928 22.21804671 468.07268224 19 467 C19 466.34 19 465.68 19 465 C18.21625 464.814375 17.4325 464.62875 16.625 464.4375 C12.44990019 462.78185697 9.32943185 460.48750463 5.7109375 457.86328125 C2.1754472 455.43326846 -1.54133393 453.47837186 -5.328125 451.47265625 C-9.39242041 449.23254021 -13.18491712 446.63546821 -17 444 C-21.06913146 441.2580405 -21.06913146 441.2580405 -25.234375 438.66796875 C-29.15492127 436.3034585 -32.98523504 433.80443116 -36.828125 431.31640625 C-40.18477332 429.14917896 -43.55919797 427.03244807 -47 425 C-47.95777344 424.4328125 -48.91554688 423.865625 -49.90234375 423.28125 C-50.90394531 422.6934375 -51.90554688 422.105625 -52.9375 421.5 C-53.93652344 420.9121875 -54.93554688 420.324375 -55.96484375 419.71875 C-58.03883156 418.54429101 -60.14879113 417.43175136 -62.28515625 416.375 C-64.82749017 415.08737188 -66.03352338 413.96647662 -68 412 C-69.97620986 410.95377125 -71.9737129 409.94560065 -74 409 C-74 408.34 -74 407.68 -74 407 C-74.5465625 406.90589844 -75.093125 406.81179688 -75.65625 406.71484375 C-78.65491056 405.80025228 -80.88683925 404.28905264 -83.5 402.5625 C-86.60506366 400.51947047 -89.63270775 398.58040367 -93 397 C-93 396.34 -93 395.68 -93 395 C-94.2065625 394.690625 -94.2065625 394.690625 -95.4375 394.375 C-99.32262002 392.87547999 -102.354024 390.90477115 -105.75390625 388.53515625 C-109.89997466 385.70140862 -114.27718098 383.25790639 -118.625 380.75 C-123.46895355 377.92730687 -128.21925815 374.9940326 -132.93359375 371.9609375 C-137.37870354 369.11833226 -141.86066178 366.33531679 -146.34277344 363.55151367 C-150.27650076 361.10151767 -154.14523222 358.57327622 -158 356 C-160.15956973 354.63454389 -162.3263842 353.28048405 -164.5 351.9375 C-165.5828125 351.26589844 -166.665625 350.59429688 -167.78125 349.90234375 C-170.79748245 348.11969181 -173.846765 346.52438017 -177 345 C-177 344.34 -177 343.68 -177 343 C-178.3921875 342.566875 -178.3921875 342.566875 -179.8125 342.125 C-183 341 -183 341 -186 339 C-186 338.34 -186 337.68 -186 337 C-186.56976562 336.89429688 -187.13953125 336.78859375 -187.7265625 336.6796875 C-190.36153263 335.89191293 -192.13076651 334.7077752 -194.375 333.125 C-196.85514743 331.42191175 -199.17949917 329.91025041 -201.875 328.5625 C-206.81696178 326.09151911 -211.35995451 322.99099335 -216 320 C-217.26896626 319.20534403 -218.53961671 318.41336642 -219.8125 317.625 C-224.23750903 314.870845 -228.61315334 312.04007668 -232.98950195 309.20947266 C-238.15713782 305.87453222 -243.42026038 302.75421526 -248.75 299.6875 C-253.26734396 297.05932818 -257.65561247 294.31522536 -261.96484375 291.359375 C-264.26515788 289.82288878 -266.62508423 288.41891154 -269 287 C-271.77699887 285.28068419 -274.54461843 283.54644547 -277.3125 281.8125 C-278.05306641 281.34908203 -278.79363281 280.88566406 -279.55664062 280.40820312 C-281.37135068 279.27254587 -283.18571067 278.13632927 -285 277 C-283.04668374 273.45351016 -281.09318672 270.91944714 -278 268.3125 C-277.319375 267.73113281 -276.63875 267.14976562 -275.9375 266.55078125 C-274 265 -274 265 -271 263 C-270.67 262.01 -270.34 261.02 -270 260 C-268.1875 258.46484375 -268.1875 258.46484375 -266 256.9375 C-262.98371816 254.92046147 -262.98371816 254.92046147 -261 252 C-260.34 252 -259.68 252 -259 252 C-258.74863281 251.41089844 -258.49726562 250.82179688 -258.23828125 250.21484375 C-256.84544599 247.72355798 -255.3791428 246.37699586 -253.1875 244.5625 C-250.71565552 242.48094675 -248.35288472 240.40344156 -246.125 238.0625 C-244 236 -244 236 -242 236 C-241.79375 235.443125 -241.5875 234.88625 -241.375 234.3125 C-239.82878474 231.71204706 -237.93082704 230.15247074 -235.578125 228.28515625 C-232.38767868 225.68699576 -229.6153822 222.63247615 -226.75 219.6875 C-224.39347637 217.38453373 -221.98329942 215.22510844 -219.5 213.0625 C-216.9140161 210.78802901 -214.5146888 208.57440871 -212.375 205.875 C-210.01128185 203.01365698 -207.55045694 200.80526877 -204.703125 198.453125 C-202.76213623 196.84127264 -202.76213623 196.84127264 -200.25 194.1875 C-198 192 -198 192 -195 191 C-194.731875 190.4225 -194.46375 189.845 -194.1875 189.25 C-192.78386071 186.59047293 -190.90649846 185.13490654 -188.578125 183.28125 C-185.22955453 180.56260863 -182.40330181 177.51533009 -179.75 174.125 C-176.97923367 170.70332349 -173.56885823 168.28741656 -170.06640625 165.65625 C-167.62393266 163.69857741 -165.90410751 161.47533977 -164 159 C-162.33353889 157.48686946 -160.62213757 156.04870632 -158.87890625 154.625 C-156.4602821 152.53321695 -154.24382951 150.27782693 -152 148 C-146.70804034 142.63034436 -141.40219771 137.40789964 -135.6640625 132.515625 C-133.83027695 130.93092108 -133.83027695 130.93092108 -132 128.4375 C-130.11692863 126.14250677 -128.45125769 124.7795586 -126.0625 123.0625 C-123.45185167 121.1818663 -121.31695555 119.39325586 -119.3125 116.875 C-117.06474517 114.080494 -114.82070624 112.18604734 -112 110 C-109.71830265 107.77262878 -107.48514077 105.52107713 -105.3125 103.1875 C-104 102 -104 102 -102 102 C-101.79375 101.443125 -101.5875 100.88625 -101.375 100.3125 C-99.82768139 97.71019143 -97.92497787 96.14998237 -95.57421875 94.27734375 C-91.9818226 91.36242182 -88.95673759 87.97502533 -86 84.4375 C-83.57210109 81.57157809 -81.10342769 79.15515812 -78 77 C-77.34 77 -76.68 77 -76 77 C-75.74992187 76.41089844 -75.49984375 75.82179688 -75.2421875 75.21484375 C-73.83561753 72.70690295 -72.34445666 71.37575422 -70.125 69.5625 C-67.80883197 67.60745494 -65.90017282 65.87521603 -64 63.5 C-60.6020376 59.25254701 -56.32371084 55.9145039 -52.13671875 52.46484375 C-49.16994302 49.99801249 -46.52341111 47.54079943 -44.0625 44.5625 C-40.2143029 39.91776748 -35.80829784 34.93609928 -30 33 C-29.32989913 31.6683893 -28.6637998 30.33476292 -28 29 C-25.9765625 27.03515625 -25.9765625 27.03515625 -23.625 25.0625 C-20.34217518 22.23518676 -17.67461948 19.41244555 -15 16 C-13.53659179 14.79109756 -12.07219048 13.58304726 -10.5859375 12.40234375 C-8.19973228 10.29237411 -6.27235053 7.84605484 -4.296875 5.35546875 C-3.86890625 4.90816406 -3.4409375 4.46085938 -3 4 C-2.34 4 -1.68 4 -1 4 C-0.67 2.68 -0.34 1.36 0 0 Z " fill="#8C57EC" transform="translate(1177,750)"/>
<path d="M0 0 C3.41683391 2.56086568 3.41683391 2.56086568 7.1171875 4.66015625 C8.875 5.5625 8.875 5.5625 9.875 7.5625 C11.17746459 8.36491122 12.51820181 9.10583428 13.875 9.8125 C17.31608144 11.67388755 20.65391304 13.62165282 23.9375 15.75 C24.69160156 16.23855469 25.44570313 16.72710938 26.22265625 17.23046875 C27.04056641 17.88982422 27.04056641 17.88982422 27.875 18.5625 C27.875 19.2225 27.875 19.8825 27.875 20.5625 C28.69291016 20.70365234 28.69291016 20.70365234 29.52734375 20.84765625 C32.54029945 21.7650787 34.80470842 23.27704388 37.4375 25 C38.38753906 25.61746094 39.33757813 26.23492188 40.31640625 26.87109375 C42.17185015 28.09766964 44.02433599 29.32872399 45.875 30.5625 C45.875 31.2225 45.875 31.8825 45.875 32.5625 C46.7 32.76875 47.525 32.975 48.375 33.1875 C52.12905299 34.66230653 54.72403946 36.52972787 57.84765625 39.02734375 C60.09831148 40.73159713 62.45178187 42.11426244 64.875 43.5625 C67.61821021 45.4365743 70.34089759 47.33550921 73.05859375 49.24609375 C76.26338143 51.48567479 79.5177368 53.56170678 82.875 55.5625 C84.68216306 56.83857841 86.45395847 58.1531251 88.2265625 59.4765625 C90.00301293 60.74840344 90.00301293 60.74840344 92.875 61.5625 C92.875 62.2225 92.875 62.8825 92.875 63.5625 C93.761875 63.81 94.64875 64.0575 95.5625 64.3125 C99.08362487 65.64122637 101.00160199 67.15686445 103.875 69.5625 C108.62613115 72.88732809 113.52838872 75.97813466 118.4375 79.0625 C122.47471769 81.61321076 126.28283182 84.33408804 130.06640625 87.2421875 C132.19885964 88.79892453 134.46314118 90.04733231 136.77734375 91.3125 C139.65630053 93.02807946 142.3824973 94.95234283 145.125 96.875 C151.80622909 101.55504144 158.56003329 106.15331025 165.6875 110.1328125 C166.409375 110.60460938 167.13125 111.07640625 167.875 111.5625 C167.875 112.2225 167.875 112.8825 167.875 113.5625 C168.7 113.76875 169.525 113.975 170.375 114.1875 C174.1693888 115.67815274 176.79290278 117.592944 179.9453125 120.125 C181.84778991 121.54223014 183.725965 122.56916826 185.875 123.5625 C185.875 124.2225 185.875 124.8825 185.875 125.5625 C186.7 125.76875 187.525 125.975 188.375 126.1875 C192.12905299 127.66230653 194.72403946 129.52972787 197.84765625 132.02734375 C200.09831148 133.73159713 202.45178187 135.11426244 204.875 136.5625 C207.61821021 138.4365743 210.34089759 140.33550921 213.05859375 142.24609375 C216.26338143 144.48567479 219.5177368 146.56170678 222.875 148.5625 C224.68216306 149.83857841 226.45395847 151.1531251 228.2265625 152.4765625 C230.00301293 153.74840344 230.00301293 153.74840344 232.875 154.5625 C232.875 155.2225 232.875 155.8825 232.875 156.5625 C233.7825 156.81 234.69 157.0575 235.625 157.3125 C239.09439028 158.64688088 240.33154624 159.94197188 242.875 162.5625 C244.62245975 163.57920386 246.37142626 164.59447063 248.1484375 165.55859375 C249.875 166.5625 249.875 166.5625 252.4375 168.625 C255.09695177 170.7389232 257.802252 172.13331488 260.875 173.5625 C260.875 174.2225 260.875 174.8825 260.875 175.5625 C261.45507812 175.66820312 262.03515625 175.77390625 262.6328125 175.8828125 C265.19773397 176.66033225 266.67124242 177.75946677 268.75 179.4375 C271.96872933 181.94497454 275.1371125 183.88045062 278.875 185.5625 C278.875 186.2225 278.875 186.8825 278.875 187.5625 C279.45894531 187.67078125 280.04289062 187.7790625 280.64453125 187.890625 C283.15167863 188.64584277 284.53879364 189.66638246 286.5625 191.3125 C289.37992122 193.50904507 292.15168385 195.33670339 295.3125 197 C299.52342353 199.24340581 303.08099612 201.99449951 306.7890625 204.98046875 C309.37148419 206.939047 311.91213123 208.2709931 314.875 209.5625 C313.19062989 212.93124022 309.27202639 213.38259584 305.875 214.5625 C299.61157622 216.79016109 293.41101231 219.1299051 287.25 221.625 C282.5830402 223.51503154 277.91132446 225.25809542 273.11328125 226.78515625 C270.31219584 227.75795904 267.60489669 228.90529851 264.875 230.0625 C260.71108655 231.82597788 256.56204168 233.40719753 252.25585938 234.78125 C242.34917244 238.03200863 232.63247044 241.89155199 222.875 245.5625 C220.10442112 246.60484505 217.33363158 247.64662515 214.5625 248.6875 C213.89717255 248.93750259 213.23184509 249.18750519 212.5463562 249.44508362 C208.62597041 250.91522068 204.69668193 252.35754975 200.7578125 253.77734375 C197.03866798 255.12249228 193.38227411 256.55722357 189.75 258.125 C185.62813885 259.86498772 181.51608399 261.42176746 177.25537109 262.78149414 C167.34876939 266.03187556 157.63228435 269.89162201 147.875 273.5625 C145.10442112 274.60484505 142.33363327 275.64662966 139.5625 276.6875 C138.56464478 277.06243591 138.56464478 277.06243591 137.54663086 277.44494629 C133.62343726 278.91608295 129.69146633 280.35986871 125.75 281.78125 C122.07778734 283.10961392 118.46329258 284.5186997 114.875 286.0625 C110.26425238 288.04619374 105.58739709 289.77619016 100.86767578 291.47851562 C95.83494809 293.30143217 90.82446759 295.18341298 85.8125 297.0625 C84.80123047 297.44019531 83.78996094 297.81789063 82.74804688 298.20703125 C77.13083363 300.31212984 71.54392666 302.47299724 65.99072266 304.74194336 C63.00854767 305.89854273 59.95916693 306.72136356 56.875 307.5625 C55.35039987 308.029543 53.82969656 308.50943978 52.3125 309 C51.25869141 309.33837891 51.25869141 309.33837891 50.18359375 309.68359375 C47.75504072 310.56032191 47.75504072 310.56032191 45.09375 311.984375 C41.45016842 313.77079121 37.77456929 315.07586601 33.9375 316.375 C25.80452038 319.18546024 17.83905056 322.30489879 9.875 325.5625 C2.87743813 328.42120134 -4.14112263 330.95991046 -11.3359375 333.2734375 C-15.17005582 334.52457085 -18.93613328 335.86110471 -22.671875 337.3828125 C-28.39145194 339.68592358 -34.15970513 341.84796738 -39.9375 344 C-55.14436806 349.68122713 -55.14436806 349.68122713 -70.25 355.625 C-75.49550588 357.73506618 -80.80512151 359.6497347 -86.125 361.5625 C-93.83114792 364.34657484 -101.51537535 367.18606683 -109.1875 370.0625 C-110.19876953 370.44019531 -111.21003906 370.81789063 -112.25195312 371.20703125 C-117.83750393 373.30026407 -123.3942467 375.44696053 -128.91772461 377.69921875 C-131.13290738 378.56559264 -133.36243159 379.32982133 -135.625 380.0625 C-139.67099746 381.37567462 -143.58787153 382.92598178 -147.52734375 384.52734375 C-152.01912621 386.31730217 -156.57540918 387.92669207 -161.125 389.5625 C-168.83114792 392.34657484 -176.51537535 395.18606683 -184.1875 398.0625 C-185.19876953 398.44019531 -186.21003906 398.81789063 -187.25195312 399.20703125 C-192.8760214 401.31469882 -198.46899431 403.47900778 -204.02758789 405.75415039 C-206.125 406.5625 -206.125 406.5625 -209.5 407.5 C-213.83509886 408.77063242 -217.87339202 410.51178558 -222.02734375 412.27734375 C-225.69061005 413.79716041 -229.40136553 415.13113013 -233.13671875 416.4609375 C-236.70452093 417.77612732 -240.22650846 419.19664015 -243.75 420.625 C-248.46363487 422.53315184 -253.18309959 424.30712155 -258.02734375 425.85546875 C-261.24966385 426.94157664 -264.37814951 428.24722306 -267.52734375 429.52734375 C-272.01900515 431.31725393 -276.57448732 432.92947914 -281.125 434.5625 C-284.79387909 435.88978801 -288.4597268 437.22528908 -292.125 438.5625 C-292.81658203 438.81402832 -293.50816406 439.06555664 -294.22070312 439.32470703 C-302.60895677 442.3783883 -310.97732533 445.45633349 -319.25 448.8125 C-323.80487151 450.65788203 -328.34786191 452.3597839 -333.02734375 453.85546875 C-336.24966385 454.94157664 -339.37814951 456.24722306 -342.52734375 457.52734375 C-347.01900515 459.31725393 -351.57448732 460.92947914 -356.125 462.5625 C-359.79387909 463.88978801 -363.4597268 465.22528908 -367.125 466.5625 C-367.81658203 466.81402832 -368.50816406 467.06555664 -369.22070312 467.32470703 C-377.60895677 470.3783883 -385.97732533 473.45633349 -394.25 476.8125 C-398.7588567 478.63923937 -403.25351337 480.33481706 -407.88867188 481.80737305 C-410.18090527 482.58137718 -412.40467896 483.45688263 -414.64453125 484.37109375 C-420.39084116 486.68755021 -426.19152664 488.84525865 -432 491 C-439.29934971 493.71683818 -446.52133697 496.51807299 -453.6796875 499.5859375 C-456.90954918 500.87581836 -460.20277298 501.80219399 -463.546875 502.74609375 C-467.56693407 504.01911246 -471.39995243 505.70204018 -475.265625 507.37890625 C-477.09072495 508.13437795 -478.94068723 508.83390219 -480.81494141 509.45751953 C-484.55368031 510.70560423 -488.24999678 512.05600967 -491.9453125 513.42578125 C-492.6852243 513.69964157 -493.42513611 513.97350189 -494.18746948 514.25566101 C-495.7492034 514.83420688 -497.31073342 515.41330343 -498.87207031 515.99291992 C-501.22110151 516.86428026 -503.57145084 517.73201473 -505.921875 518.59960938 C-513.57661224 521.43447402 -521.17795083 524.33420713 -528.68286133 527.55126953 C-531.69191732 528.79724673 -534.74424272 529.8225425 -537.84375 530.81640625 C-544.316453 532.9333348 -550.67828544 535.39176909 -557.05249023 537.78613281 C-559.02807521 538.52619174 -561.00578136 539.26021639 -562.984375 539.9921875 C-570.12088739 542.63973487 -577.19760146 545.35702612 -584.18359375 548.38671875 C-587.33429703 549.64616322 -590.51766732 550.70836849 -593.74047852 551.76586914 C-597.64973213 553.07188885 -601.51077007 554.50470908 -605.375 555.9375 C-606.21071533 556.2463916 -607.04643066 556.5552832 -607.9074707 556.87353516 C-613.40338829 558.91008001 -618.87929335 560.99369175 -624.34375 563.11328125 C-630.6665964 565.55081039 -637.02356545 567.90007582 -643.3737793 570.26513672 C-648.94831236 572.34742771 -654.49093002 574.48650915 -659.9987793 576.73974609 C-662.98245151 577.89429603 -666.04423165 578.70673101 -669.125 579.5625 C-671.09190455 580.26961031 -673.04119647 581.01583237 -674.9921875 581.765625 C-678.6665803 583.13847506 -682.39660594 584.34559361 -686.125 585.5625 C-682.22097674 580.65744514 -678.21803229 576.93135481 -673.2109375 573.171875 C-670.61578486 571.1696224 -668.4140578 568.90738847 -666.125 566.5625 C-660.886784 561.74407135 -655.54504345 557.04301979 -650.1796875 552.3671875 C-645.23064878 548.02031319 -640.35890215 543.58553233 -635.4765625 539.1640625 C-624.25273368 529.01879981 -624.25273368 529.01879981 -618.5625 525.0625 C-615.40261851 522.83684434 -612.83269514 520.3331648 -610.125 517.5625 C-604.89026565 512.74581735 -599.55142035 508.0468016 -594.1875 503.375 C-591.81535571 501.29038836 -589.46943935 499.17821356 -587.125 497.0625 C-576.12483907 487.1437681 -576.12483907 487.1437681 -571.4375 483.4375 C-569.07536345 481.58863264 -569.07536345 481.58863264 -566.9375 479.375 C-560.5045228 472.9420228 -553.62707426 467.09159135 -546.4921875 461.45703125 C-540.28720813 456.49099991 -534.46035833 451.07245751 -528.5625 445.75 C-525.79351101 443.26500988 -522.99302697 440.81852349 -520.1875 438.375 C-517.81535571 436.29038836 -515.46943935 434.17821356 -513.125 432.0625 C-510.14437279 429.37266569 -507.15254767 426.69939636 -504.125 424.0625 C-499.40798716 419.95168961 -494.76861111 415.75582155 -490.125 411.5625 C-486.79665142 408.55690037 -483.46352519 405.55679101 -480.125 402.5625 C-479.02091797 401.56476563 -479.02091797 401.56476563 -477.89453125 400.546875 C-474.43660991 397.45875013 -471.11610142 394.93558733 -467.125 392.5625 C-465.96664414 391.43724002 -464.81238588 390.30687771 -463.6953125 389.140625 C-458.16422565 383.58202031 -452.09869465 378.52345985 -446.1875 373.375 C-443.81535571 371.29038836 -441.46943935 369.17821356 -439.125 367.0625 C-436.14437279 364.37266569 -433.15254767 361.69939636 -430.125 359.0625 C-425.40798716 354.95168961 -420.76861111 350.75582155 -416.125 346.5625 C-412.79665175 343.55690067 -409.46380582 340.55647833 -406.125 337.5625 C-405.40054687 336.90894531 -404.67609375 336.25539063 -403.9296875 335.58203125 C-403.25164062 334.97746094 -402.57359375 334.37289063 -401.875 333.75 C-401.29234375 333.22792969 -400.7096875 332.70585938 -400.109375 332.16796875 C-398.125 330.5625 -398.125 330.5625 -395.3203125 328.7578125 C-391.61996815 326.21552213 -388.49110222 323.34143065 -385.25 320.25 C-384.00859511 319.08119947 -382.76641381 317.913223 -381.5234375 316.74609375 C-380.93401367 316.19163574 -380.34458984 315.63717773 -379.73730469 315.06591797 C-377.22750993 312.72562177 -374.64411221 310.47643447 -372.046875 308.234375 C-369.71394926 306.20491927 -367.41988755 304.134853 -365.125 302.0625 C-362.14437279 299.37266569 -359.15254767 296.69939636 -356.125 294.0625 C-351.40798716 289.95168961 -346.76861111 285.75582155 -342.125 281.5625 C-338.79665241 278.55690127 -335.46436984 275.55584961 -332.125 272.5625 C-331.42375 271.93214844 -330.7225 271.30179688 -330 270.65234375 C-326.88426497 267.88347766 -323.75474977 265.25343039 -320.375 262.8125 C-315.60162826 259.3076424 -311.33870464 255.25465212 -307.0078125 251.23046875 C-304.09463949 248.53440213 -301.12841393 245.91514463 -298.12890625 243.31640625 C-294.88719131 240.47911579 -291.70642572 237.57436217 -288.51953125 234.67578125 C-281.5926525 228.5625 -281.5926525 228.5625 -279.125 228.5625 C-278.73634766 227.66917969 -278.73634766 227.66917969 -278.33984375 226.7578125 C-277.02709487 224.38557818 -275.76718073 223.15831691 -273.6875 221.4375 C-269.26505292 217.70101642 -265.0009628 213.8117567 -260.73828125 209.89453125 C-253.64258794 203.5625 -253.64258794 203.5625 -251.125 203.5625 C-250.8775 202.96824219 -250.63 202.37398437 -250.375 201.76171875 C-248.9263512 199.21300227 -247.49258147 198.08726874 -245.125 196.375 C-240.67335954 193.04344972 -236.57476252 189.43867042 -232.484375 185.67578125 C-225.65919593 179.5625 -225.65919593 179.5625 -223.125 179.5625 C-222.898125 178.985 -222.67125 178.4075 -222.4375 177.8125 C-220.77651778 174.96510191 -218.80975439 173.44182807 -216.125 171.5625 C-215.465 171.5625 -214.805 171.5625 -214.125 171.5625 C-213.898125 170.985 -213.67125 170.4075 -213.4375 169.8125 C-211.77651778 166.96510191 -209.80975439 165.44182807 -207.125 163.5625 C-206.465 163.5625 -205.805 163.5625 -205.125 163.5625 C-204.89425781 162.9953125 -204.66351562 162.428125 -204.42578125 161.84375 C-202.79164006 158.97786876 -200.79190116 157.23336998 -198.3125 155.0625 C-197.46042969 154.3096875 -196.60835937 153.556875 -195.73046875 152.78125 C-188.4278169 146.5625 -188.4278169 146.5625 -186.125 146.5625 C-185.898125 145.985 -185.67125 145.4075 -185.4375 144.8125 C-183.77651778 141.96510191 -181.80975439 140.44182807 -179.125 138.5625 C-178.465 138.5625 -177.805 138.5625 -177.125 138.5625 C-176.86001709 137.95946045 -176.59503418 137.3564209 -176.32202148 136.73510742 C-175.07475821 134.47131059 -173.99442489 133.37450279 -171.97265625 131.80078125 C-171.36099609 131.32189453 -170.74933594 130.84300781 -170.11914062 130.34960938 C-169.48169922 129.86298828 -168.84425781 129.37636719 -168.1875 128.875 C-167.23713867 128.12766602 -167.23713867 128.12766602 -166.26757812 127.36523438 C-163.50740489 125.22617268 -161.47561523 123.67937174 -158.125 122.5625 C-157.83625 121.964375 -157.5475 121.36625 -157.25 120.75 C-155.75293406 117.83903846 -153.78196113 116.42237279 -151.125 114.5625 C-150.465 114.5625 -149.805 114.5625 -149.125 114.5625 C-148.898125 113.985 -148.67125 113.4075 -148.4375 112.8125 C-146.77651778 109.96510191 -144.80975439 108.44182807 -142.125 106.5625 C-141.465 106.5625 -140.805 106.5625 -140.125 106.5625 C-139.939375 106.005625 -139.75375 105.44875 -139.5625 104.875 C-137.77881917 102.0056004 -135.70052731 100.72501845 -132.93359375 98.85546875 C-129.7141826 96.55390268 -127.12333375 93.6347844 -124.4375 90.75 C-123.125 89.5625 -123.125 89.5625 -121.125 89.5625 C-120.898125 88.985 -120.67125 88.4075 -120.4375 87.8125 C-118.77651778 84.96510191 -116.80975439 83.44182807 -114.125 81.5625 C-113.465 81.5625 -112.805 81.5625 -112.125 81.5625 C-111.939375 81.005625 -111.75375 80.44875 -111.5625 79.875 C-109.7796741 77.00697573 -107.70394715 75.72672683 -104.9375 73.859375 C-102.37989008 72.029361 -100.28106555 69.8417693 -98.125 67.5625 C-97.465 66.9025 -96.805 66.2425 -96.125 65.5625 C-95.135 65.5625 -94.145 65.5625 -93.125 65.5625 C-92.898125 64.985 -92.67125 64.4075 -92.4375 63.8125 C-90.77651778 60.96510191 -88.80975439 59.44182807 -86.125 57.5625 C-85.465 57.5625 -84.805 57.5625 -84.125 57.5625 C-83.898125 56.985 -83.67125 56.4075 -83.4375 55.8125 C-81.77651778 52.96510191 -79.80975439 51.44182807 -77.125 49.5625 C-76.465 49.5625 -75.805 49.5625 -75.125 49.5625 C-74.939375 49.005625 -74.75375 48.44875 -74.5625 47.875 C-72.777113 45.0028557 -70.69369449 43.72158509 -67.92578125 41.84765625 C-65.36538135 40.02038604 -63.28745837 37.83877197 -61.125 35.5625 C-57.35247709 31.69070017 -53.49630867 27.76665824 -49.125 24.5625 C-48.465 24.5625 -47.805 24.5625 -47.125 24.5625 C-46.939375 24.005625 -46.75375 23.44875 -46.5625 22.875 C-44.777113 20.0028557 -42.69369449 18.72158509 -39.92578125 16.84765625 C-37.36538135 15.02038604 -35.28745837 12.83877197 -33.125 10.5625 C-29.77574513 7.13957285 -26.34511387 3.90461045 -22.6875 0.8125 C-21.78128906 0.03390625 -20.87507812 -0.7446875 -19.94140625 -1.546875 C-13.0786392 -6.15378104 -6.31791768 -4.76319499 0 0 Z " fill="#9C82F5" transform="translate(870.125,1058.4375)"/>
</svg>
